<svg width="31" height="30" viewBox="0 0 31 30" fill="none" xmlns="http://www.w3.org/2000/svg">
<g clip-path="url(#clip0_1_303)">
<path fill-rule="evenodd" clip-rule="evenodd" d="M24.5546 7.32667C24.5546 8.27946 23.7822 9.05167 22.8295 9.05167C21.8771 9.05167 21.1045 8.27946 21.1045 7.32667C21.1045 6.37388 21.8771 5.60167 22.8295 5.60167C23.7824 5.60167 24.5546 6.37388 24.5546 7.32667ZM15.1562 19.7916C12.5099 19.7916 10.3646 17.6463 10.3646 15C10.3646 12.3537 12.5099 10.2084 15.1562 10.2084C17.8025 10.2084 19.9478 12.3537 19.9478 15C19.9478 17.6463 17.8025 19.7916 15.1562 19.7916ZM15.1562 7.61821C11.0793 7.61821 7.77446 10.9231 7.77446 15C7.77446 19.0769 11.0793 22.3818 15.1562 22.3818C19.2332 22.3818 22.538 19.0769 22.538 15C22.538 10.9231 19.2332 7.61821 15.1562 7.61821ZM15.1562 3.2152C18.9946 3.2152 19.4492 3.22979 20.9648 3.29897C22.3664 3.36299 23.1276 3.59703 23.6341 3.79401C24.305 4.05479 24.784 4.36632 25.2871 4.86944C25.7901 5.37234 26.1017 5.85121 26.3624 6.52234C26.5592 7.02884 26.7934 7.79004 26.8575 9.1916C26.9266 10.7075 26.9412 11.1621 26.9412 15.0004C26.9412 18.8388 26.9266 19.2934 26.8575 20.8091C26.7934 22.2106 26.5595 22.9718 26.3624 23.4783C26.1017 24.1492 25.7901 24.6281 25.2871 25.1312C24.7842 25.6344 24.3053 25.9459 23.6341 26.2067C23.1276 26.4034 22.3664 26.6377 20.9648 26.7017C19.4492 26.7709 18.9946 26.7855 15.1562 26.7855C11.3176 26.7855 10.863 26.7709 9.3474 26.7017C7.94584 26.6377 7.18464 26.4036 6.67814 26.2067C6.00724 25.9459 5.52837 25.6344 5.02524 25.1312C4.52234 24.6283 4.21059 24.1495 3.94981 23.4783C3.75306 22.9718 3.51879 22.2106 3.45478 20.8091C3.3856 19.2932 3.371 18.8386 3.371 15.0004C3.371 11.1621 3.3856 10.7075 3.45478 9.1916C3.51879 7.79004 3.75283 7.02884 3.94981 6.52234C4.21059 5.85144 4.52212 5.37257 5.02524 4.86944C5.52814 4.36632 6.00701 4.05479 6.67814 3.79401C7.18464 3.59726 7.94584 3.36299 9.3474 3.29897C10.8632 3.22979 11.318 3.2152 15.1562 3.2152ZM15.1562 0.625C11.2523 0.625 10.7626 0.641621 9.22948 0.711475C7.69944 0.781328 6.65434 1.02436 5.74018 1.37969C4.79479 1.74692 3.99316 2.23859 3.194 3.03775C2.39484 3.83691 1.90317 4.63854 1.53594 5.58393C1.18061 6.49831 0.937578 7.54319 0.867725 9.07323C0.797871 10.6064 0.78125 11.0961 0.78125 15C0.78125 18.9039 0.797871 19.3936 0.867725 20.9268C0.937578 22.4568 1.18061 23.5017 1.53594 24.4161C1.90317 25.3615 2.39484 26.1631 3.194 26.9622C3.99316 27.7614 4.79479 28.2529 5.74018 28.6203C6.65456 28.9756 7.69944 29.2187 9.22948 29.2885C10.7626 29.3584 11.2523 29.375 15.1562 29.375C19.0602 29.375 19.5499 29.3584 21.083 29.2885C22.6131 29.2187 23.6579 28.9756 24.5723 28.6203C25.5177 28.2529 26.3193 27.7614 27.1185 26.9622C27.9177 26.1631 28.4092 25.3615 28.7766 24.4161C29.1319 23.5017 29.375 22.4568 29.4447 20.9268C29.5147 19.3936 29.5312 18.9039 29.5312 15C29.5312 11.0961 29.5147 10.6064 29.4447 9.07323C29.375 7.54319 29.1319 6.49831 28.7766 5.58393C28.4092 4.63854 27.9177 3.83691 27.1185 3.03775C26.3193 2.23859 25.5177 1.74715 24.5723 1.37969C23.6579 1.02436 22.6131 0.781328 21.083 0.711475C19.5499 0.641621 19.0602 0.625 15.1562 0.625Z" fill="#A4AF93"/>
</g>
<defs>
<clipPath id="clip0_1_303">
<rect width="30" height="30" fill="white" transform="translate(0.15625)"/>
</clipPath>
</defs>
</svg>
