<svg width="14" height="17" viewBox="0 0 14 17" fill="none" xmlns="http://www.w3.org/2000/svg">
<g clip-path="url(#clip0_1_6)">
<path d="M7.00011 1.48438C10.2805 1.48438 12.9404 4.11268 12.9404 7.35416C12.9404 10.9901 9.96986 14.4944 7.00011 16.3345C4.02961 14.3634 1.05987 11.1218 1.05987 7.35416C1.05987 4.11268 3.71973 1.48438 7.00011 1.48438ZM7.00011 2.3603C4.20695 2.3603 1.94624 4.59419 1.94624 7.35422C1.94624 10.5522 4.4728 13.531 7.00011 15.2828C9.48279 13.6621 12.054 10.4206 12.054 7.35422C12.054 4.59419 9.79328 2.3603 7.00011 2.3603Z" fill="white" stroke="white" stroke-width="0.4"/>
<path d="M7.0004 4.41797C8.64058 4.41797 9.97087 5.73186 9.97087 7.35323C9.97087 8.97395 8.64122 10.2885 7.0004 10.2885C5.36022 10.2885 4.02992 8.97459 4.02992 7.35323C4.02992 5.7325 5.35957 4.41797 7.0004 4.41797ZM7.0004 5.29389C5.84803 5.29389 4.91704 6.21389 4.91704 7.35254C4.91704 8.49124 5.84808 9.4112 7.0004 9.4112C8.15272 9.4112 9.08376 8.4912 9.08376 7.35254C9.08376 6.21384 8.15272 5.29389 7.0004 5.29389Z" fill="white" stroke="white" stroke-width="0.4"/>
</g>
<defs>
<clipPath id="clip0_1_6">
<rect width="14" height="16" fill="white" transform="translate(0 0.984375)"/>
</clipPath>
</defs>
</svg>
