<svg width="121" height="39" viewBox="0 0 121 39" fill="none" xmlns="http://www.w3.org/2000/svg">
<g clip-path="url(#clip0_1_62)">
<path d="M57.5078 32L50.503 24.897C48.499 22.8647 48.499 19.5547 50.503 17.5224C52.4115 15.587 55.4846 15.4902 57.507 17.2707C58.4426 16.4579 59.6072 16.0126 60.8664 16.0126C62.2404 16.0126 63.5383 16.5547 64.4926 17.5413C65.4662 18.5287 66 19.8442 66 21.2187C66 22.6121 65.4655 23.9284 64.4926 24.8961L57.5078 32ZM54.1291 16.7868C53.0034 16.7868 51.8964 17.2124 51.0375 18.0834C49.3393 19.8056 49.3393 22.6318 51.0375 24.3539L57.4885 30.896L63.9395 24.3539C64.7603 23.5215 65.218 22.3987 65.218 21.2186C65.218 20.0377 64.7603 18.9158 63.9395 18.0834C63.1187 17.251 62.0115 16.7868 60.8479 16.7868C59.6834 16.7868 58.5771 17.251 57.7563 18.0834L57.4894 18.354L57.2225 18.0834C56.3816 17.2124 55.2555 16.7868 54.1291 16.7868Z" fill="#272727" stroke="#272727" stroke-width="0.8"/>
</g>
<g clip-path="url(#clip1_1_62)">
<path d="M112.838 32.154H98.9617C98.6627 32.154 98.3807 32.0225 98.1884 31.7933C97.9962 31.5642 97.9156 31.2636 97.9676 30.9692L99.7495 20.8729C99.8343 20.3896 100.252 20.0386 100.743 20.0386H111.056C111.547 20.0386 111.965 20.3894 112.051 20.8729L113.832 30.9692C113.884 31.2638 113.804 31.5642 113.611 31.7934C113.419 32.0225 113.137 32.154 112.838 32.154ZM100.743 20.7117C100.58 20.7117 100.441 20.8285 100.412 20.9895L98.6302 31.086C98.6065 31.2204 98.6663 31.3157 98.7041 31.3606C98.7415 31.4056 98.8254 31.4809 98.9617 31.4809H112.838C112.975 31.4809 113.058 31.4056 113.096 31.3608C113.161 31.2832 113.187 31.1856 113.17 31.0859L111.388 20.9899C111.359 20.8287 111.22 20.7117 111.056 20.7117H100.743Z" fill="#272727" stroke="#272727" stroke-width="0.8"/>
<path d="M109.265 23.0673H108.592V19.3654C108.592 17.8809 107.384 16.6731 105.9 16.6731C104.415 16.6731 103.207 17.8809 103.207 19.3654V23.0673H102.534V19.3654C102.534 17.5096 104.044 16 105.9 16C107.755 16 109.265 17.5096 109.265 19.3654V23.0673Z" fill="#272727" stroke="#272727" stroke-width="0.8"/>
</g>
<g clip-path="url(#clip2_1_62)">
<path d="M17.5673 31.4317L12.9999 26.8885C14.0321 25.62 14.5965 24.0356 14.5993 22.3997C14.5993 20.4901 13.8408 18.6591 12.4908 17.3091C11.1408 15.9582 9.30892 15.1997 7.39924 15.1997C5.48956 15.1997 3.6586 15.9582 2.3086 17.3091C0.957666 18.6591 0.199219 20.4901 0.199219 22.3997C0.199219 24.3094 0.957666 26.1413 2.3086 27.4913C3.6586 28.8413 5.48956 29.5998 7.39924 29.5998C9.03518 29.597 10.6196 29.0326 11.888 28.0004L16.4321 32.552C16.583 32.7039 16.7865 32.7892 16.9993 32.7892C17.2131 32.7892 17.4174 32.7039 17.5674 32.552C17.8721 32.2407 17.872 31.7429 17.5673 31.4317ZM7.39927 28.0004C5.91427 28.0004 4.49023 27.4098 3.44023 26.3598C2.38929 25.3098 1.79961 23.8856 1.79961 22.3998C1.79961 20.9148 2.38929 19.4907 3.44023 18.4407C4.49023 17.3898 5.91439 16.8001 7.39927 16.8001C8.8852 16.8001 10.3093 17.3898 11.3593 18.4407C12.4093 19.4907 12.9999 20.9149 12.9999 22.3998C12.9999 23.8857 12.4093 25.3098 11.3593 26.3598C10.3093 27.4098 8.88511 28.0004 7.39927 28.0004Z" fill="#272727"/>
</g>
<defs>
<clipPath id="clip0_1_62">
<rect width="19" height="18" fill="white" transform="translate(48 15)"/>
</clipPath>
<clipPath id="clip1_1_62">
<rect width="18" height="18" fill="white" transform="translate(97 15)"/>
</clipPath>
<clipPath id="clip2_1_62">
<rect width="18" height="18" fill="white" transform="translate(0 15)"/>
</clipPath>
</defs>
</svg>
