<svg width="15" height="14" viewBox="0 0 15 14" fill="none" xmlns="http://www.w3.org/2000/svg">
<path fill-rule="evenodd" clip-rule="evenodd" d="M6.8335 2.64592C6.87995 2.59935 6.93512 2.56241 6.99587 2.5372C7.05661 2.512 7.12173 2.49902 7.1875 2.49902C7.25327 2.49902 7.31839 2.512 7.37913 2.5372C7.43988 2.56241 7.49505 2.59935 7.5415 2.64592L11.8945 6.99992L7.5415 11.3539C7.44761 11.4478 7.32028 11.5005 7.1875 11.5005C7.05472 11.5005 6.92739 11.4478 6.8335 11.3539C6.73961 11.26 6.68687 11.1327 6.68687 10.9999C6.68687 10.8671 6.73961 10.7398 6.8335 10.6459L9.9805 7.49992H3.1875C3.05489 7.49992 2.92771 7.44724 2.83395 7.35347C2.74018 7.2597 2.6875 7.13253 2.6875 6.99992C2.6875 6.86731 2.74018 6.74013 2.83395 6.64636C2.92771 6.5526 3.05489 6.49992 3.1875 6.49992H9.9805L6.8335 3.35392C6.78694 3.30747 6.74999 3.2523 6.72479 3.19155C6.69958 3.13081 6.68661 3.06568 6.68661 2.99992C6.68661 2.93415 6.69958 2.86903 6.72479 2.80828C6.74999 2.74754 6.78694 2.69236 6.8335 2.64592Z" fill="#202020"/>
</svg>
