<svg width="15" height="15" viewBox="0 0 15 15" fill="none" xmlns="http://www.w3.org/2000/svg">
<g clip-path="url(#clip0_1_16)">
<path d="M11.3075 14.6498L10.7195 14.642L10.5502 14.6102C10.4169 14.5847 10.2757 14.5597 10.1409 14.5264C9.369 14.3342 8.59823 13.9796 7.71439 13.4131C6.63057 12.7174 5.56232 11.828 4.35302 10.6138C3.402 9.68694 2.54427 8.66843 1.79162 7.57444C1.15309 6.62416 0.770289 5.84154 0.548948 5.02041C0.503638 4.85535 0.472909 4.69132 0.443743 4.53252C0.430202 4.46431 0.418223 4.39922 0.405203 4.32997L0.395828 4.24562V3.77126L0.427598 3.69419C0.662485 3.12611 1.06247 2.72465 1.45465 2.36328C1.74006 2.09668 2.04109 1.85403 2.32389 1.62857C2.66711 1.34739 3.12439 1.24897 3.55303 1.36249C3.82802 1.42758 4.06708 1.59732 4.21968 1.83581L4.5853 2.38619C4.96654 2.9673 5.35976 3.56715 5.75974 4.14721C6.07015 4.57574 6.11389 5.14226 5.87276 5.6135C5.80193 5.76971 5.72069 5.91342 5.64204 6.05349L5.54204 6.23366C5.46756 6.36696 5.39412 6.50027 5.31652 6.63356L5.56704 6.93349C5.79255 7.20009 6.02692 7.48646 6.26702 7.74525C6.92585 8.46903 7.64297 9.13704 8.41015 9.74422C8.69295 9.58019 8.98877 9.41513 9.31272 9.23913C9.63719 9.0423 10.0236 8.97513 10.3955 9.05116C10.5273 9.08136 10.6528 9.13448 10.7663 9.20842C11.5918 9.7515 12.4157 10.2967 13.2371 10.844C13.6662 11.1304 13.8386 11.7146 13.6584 12.2666C13.6178 12.3983 13.5563 12.5228 13.4766 12.6358C13.049 13.2419 12.5386 13.785 11.9605 14.2499C11.835 14.3447 11.7012 14.4285 11.5606 14.5003C11.51 14.5285 11.4606 14.555 11.4111 14.5831L11.3075 14.6498ZM10.8424 13.7953H11.0799L11.1518 13.7568C11.2502 13.7068 11.345 13.6485 11.434 13.5834C11.9497 13.1642 12.4043 12.6753 12.7851 12.1307C12.8106 12.089 12.8304 12.0442 12.8434 11.9974C12.908 11.8458 12.8757 11.6709 12.7606 11.5532C11.9403 11.0065 11.1185 10.4628 10.2956 9.92187C10.2675 9.90365 10.2362 9.89062 10.2034 9.88282C10.0342 9.85418 9.86071 9.89011 9.71697 9.98435C9.35813 10.1775 9.03678 10.3587 8.73418 10.5373C8.50555 10.6868 8.20608 10.6691 7.99566 10.4946C7.15037 9.84011 6.36344 9.11326 5.64359 8.32226C5.3863 8.04629 5.14516 7.75572 4.91184 7.47455C4.78788 7.32874 4.66236 7.18504 4.54518 7.04133C4.36862 6.84659 4.34674 6.55708 4.4931 6.33839C4.5983 6.16499 4.69569 5.989 4.79309 5.81456L4.89725 5.62919C4.97069 5.4959 5.0384 5.37873 5.09309 5.2574C5.20871 5.06057 5.19309 4.81326 5.05455 4.63257C4.65456 4.04468 4.25457 3.43965 3.86917 2.85595L3.51292 2.30921C3.47751 2.25037 3.41866 2.20976 3.35199 2.19674C3.18117 2.14519 2.99627 2.18216 2.85826 2.29568C2.5916 2.51281 2.29942 2.74608 2.03432 2.99134C1.71975 3.28085 1.42393 3.57244 1.25049 3.94318V4.20196C1.26247 4.25924 1.27341 4.31651 1.28383 4.3738C1.31195 4.52324 1.33851 4.66331 1.37445 4.79661C1.56923 5.51779 1.91714 6.22691 2.50098 7.09602C3.22336 8.14524 4.04627 9.12045 4.95824 10.0098C6.12904 11.184 7.14618 12.0307 8.17695 12.693C8.97693 13.2091 9.67011 13.5277 10.3477 13.6969C10.4649 13.7261 10.5852 13.7474 10.705 13.7688L10.8424 13.7953Z" fill="white" stroke="white" stroke-width="0.4"/>
</g>
<defs>
<clipPath id="clip0_1_16">
<rect width="14" height="14" fill="white" transform="translate(0.0625 0.984375)"/>
</clipPath>
</defs>
</svg>
