<svg width="46" height="30" viewBox="0 0 46 30" fill="none" xmlns="http://www.w3.org/2000/svg">
<g clip-path="url(#clip0_1_24)">
<path d="M29.7667 19.2087V19.2064C29.7222 17.3003 28.9208 15.6275 27.7213 14.3745C26.9655 13.585 26.0126 13.0029 24.9383 12.6658C25.7948 12.0317 26.3899 10.9628 26.3899 9.76978C26.3899 7.7935 24.8569 6.2334 23.0003 6.2334C21.0981 6.2334 19.6107 7.84126 19.6107 9.76978C19.6107 10.9621 20.1667 12.0338 21.0591 12.669C20.0246 13.0066 19.0742 13.5873 18.2807 14.3726C17.0792 15.5812 16.2779 17.3014 16.2334 19.2064L16.2334 19.2087C16.2334 19.5169 16.4832 19.7667 16.7914 19.7667H29.2087C29.5169 19.7667 29.7667 19.5169 29.7667 19.2087ZM26.9643 15.1556L26.9662 15.1574C27.8883 16.0335 28.5267 17.2952 28.679 18.6505H17.3648C17.5145 17.2969 18.1113 16.0769 19.0351 15.1557C20.0701 14.1191 21.4489 13.4894 22.9998 13.4894C24.5507 13.4894 25.9293 14.1195 26.9643 15.1556ZM20.6877 9.76964C20.6877 8.4462 21.7433 7.34986 22.9998 7.34986C24.2563 7.34986 25.3119 8.4462 25.3119 9.76964C25.3119 11.0931 24.2563 12.1894 22.9998 12.1894C21.7433 12.1894 20.6877 11.0931 20.6877 9.76964Z" fill="white"/>
<path d="M27.7213 14.3745C28.9208 15.6275 29.7222 17.3003 29.7667 19.2064V19.2087C29.7667 19.5169 29.5169 19.7667 29.2087 19.7667H16.7914C16.4832 19.7667 16.2334 19.5169 16.2334 19.2087L16.2334 19.2064C16.2779 17.3014 17.0792 15.5812 18.2807 14.3726C19.0742 13.5873 20.0246 13.0066 21.0591 12.669C20.1667 12.0338 19.6107 10.9621 19.6107 9.76978C19.6107 7.84126 21.0981 6.2334 23.0003 6.2334C24.8569 6.2334 26.3899 7.7935 26.3899 9.76978C26.3899 10.9628 25.7948 12.0317 24.9383 12.6658C26.0126 13.0029 26.9655 13.585 27.7213 14.3745ZM27.7213 14.3745L27.6491 14.4436M26.9643 15.1556L26.9662 15.1574C27.8883 16.0335 28.5267 17.2952 28.679 18.6505H17.3648C17.5145 17.2969 18.1113 16.0769 19.0351 15.1557C20.0701 14.1191 21.4489 13.4894 22.9998 13.4894C24.5507 13.4894 25.9293 14.1195 26.9643 15.1556ZM20.6877 9.76964C20.6877 8.4462 21.7433 7.34986 22.9998 7.34986C24.2563 7.34986 25.3119 8.4462 25.3119 9.76964C25.3119 11.0931 24.2563 12.1894 22.9998 12.1894C21.7433 12.1894 20.6877 11.0931 20.6877 9.76964Z" stroke="white" stroke-width="0.2"/>
</g>
<defs>
<clipPath id="clip0_1_24">
<rect width="18" height="18" fill="white" transform="translate(16 6)"/>
</clipPath>
</defs>
</svg>
